<svg width="24" height="24" viewBox="0 0 24 24" fill="none" xmlns="http://www.w3.org/2000/svg">
<path fill-rule="evenodd" clip-rule="evenodd" d="M22.5 18C22.5 19.5188 21.277 20.75 19.7684 20.75L7.9565 20.75C7.0147 20.75 6.1393 20.2616 5.6401 19.4575L1.9152 13.4575C1.3616 12.5658 1.3616 11.4342 1.9152 10.5425L5.6401 4.5425C6.1393 3.7385 7.0147 3.25 7.9565 3.25L19.7684 3.25C21.277 3.25 22.5 4.4812 22.5 6L22.5 18ZM9.1335 15.7071C8.7456 15.3165 8.7456 14.6834 9.1336 14.2929L11.4112 12L9.1336 9.7071C8.7456 9.3166 8.7456 8.6835 9.1335 8.2929C9.5214 7.9024 10.1503 7.9024 10.5383 8.2929L12.816 10.5858L15.0934 8.2933C15.4813 7.9028 16.1103 7.9028 16.4981 8.2933C16.886 8.6839 16.886 9.317 16.4981 9.7075L14.2208 12L16.4981 14.2925C16.886 14.683 16.886 15.3162 16.4981 15.7067C16.1102 16.0972 15.4813 16.0973 15.0934 15.7067L12.816 13.4142L10.5383 15.7071C10.1503 16.0976 9.5214 16.0976 9.1335 15.7071Z" fill="black"/>
</svg>
